<svg width="36" height="36" viewBox="0 0 36 36" fill="none" xmlns="http://www.w3.org/2000/svg">
<path d="M8.99961 9C8.40287 9 7.83058 9.23705 7.40862 9.65901C6.98666 10.081 6.74961 10.6533 6.74961 11.25L6.74961 16.7445C6.74961 17.3412 6.98666 17.9135 7.40862 18.3355C7.83058 18.7574 8.40287 18.9945 8.99961 18.9945H12.1226C12.1226 19.7843 12.0754 20.5762 11.9831 21.366C11.8436 22.203 11.6096 22.9477 11.2856 23.598C10.9594 24.2505 10.5409 24.7613 10.0279 25.1347C9.51711 25.5533 8.86686 25.7625 8.07486 25.7625V29.25C9.37761 29.25 10.5161 28.971 11.4949 28.413C12.4651 27.8607 13.2993 27.098 13.9361 26.181C14.5753 25.17 15.0464 24.0622 15.3311 22.9005C15.618 21.6185 15.7584 20.3081 15.7496 18.9945V11.25C15.7496 10.6533 15.5126 10.081 15.0906 9.65901C14.6686 9.23705 14.0963 9 13.4996 9H8.99961ZM22.4996 9C21.9029 9 21.3306 9.23705 20.9086 9.65901C20.4867 10.081 20.2496 10.6533 20.2496 11.25V16.7445C20.2496 17.3412 20.4867 17.9135 20.9086 18.3355C21.3306 18.7574 21.9029 18.9945 22.4996 18.9945H25.6226C25.6226 19.7843 25.5754 20.5762 25.4831 21.366C25.3436 22.203 25.1096 22.9477 24.7856 23.598C24.4594 24.2505 24.0409 24.7613 23.5279 25.1347C23.0171 25.5533 22.3669 25.7625 21.5749 25.7625V29.25C22.8776 29.25 24.0161 28.971 24.9949 28.413C25.9651 27.8607 26.7993 27.098 27.4361 26.181C28.0753 25.17 28.5464 24.0622 28.8311 22.9005C29.118 21.6185 29.2584 20.3081 29.2496 18.9945L29.2496 11.25C29.2496 10.6533 29.0126 10.081 28.5906 9.65901C28.1686 9.23705 27.5963 9 26.9996 9H22.4996Z" fill="black"/>
</svg>
