<svg width="36" height="36" viewBox="0 0 36 36" fill="none" xmlns="http://www.w3.org/2000/svg">
<path d="M27.0004 27C27.5971 27 28.1694 26.7629 28.5914 26.341C29.0133 25.919 29.2504 25.3467 29.2504 24.75V19.2555C29.2504 18.6588 29.0133 18.0865 28.5914 17.6645C28.1694 17.2426 27.5971 17.0055 27.0004 17.0055H23.8774C23.8774 16.2157 23.9246 15.4238 24.0169 14.634C24.1564 13.797 24.3904 13.0523 24.7144 12.402C25.0406 11.7495 25.4591 11.2387 25.9721 10.8653C26.4829 10.4467 27.1331 10.2375 27.9251 10.2375V6.75C26.6224 6.75 25.4839 7.029 24.5051 7.587C23.5349 8.13934 22.7007 8.90202 22.0639 9.819C21.4247 10.83 20.9536 11.9378 20.6689 13.0995C20.382 14.3815 20.2416 15.6919 20.2504 17.0055V24.75C20.2504 25.3467 20.4874 25.919 20.9094 26.341C21.3314 26.7629 21.9037 27 22.5004 27H27.0004ZM13.5004 27C14.0971 27 14.6694 26.7629 15.0914 26.341C15.5133 25.919 15.7504 25.3467 15.7504 24.75V19.2555C15.7504 18.6588 15.5133 18.0865 15.0914 17.6645C14.6694 17.2426 14.0971 17.0055 13.5004 17.0055H10.3774C10.3774 16.2157 10.4246 15.4238 10.5169 14.634C10.6564 13.797 10.8904 13.0523 11.2144 12.402C11.5406 11.7495 11.9591 11.2387 12.4721 10.8653C12.9829 10.4467 13.6331 10.2375 14.4251 10.2375V6.75C13.1224 6.75 11.9839 7.029 11.0051 7.587C10.0349 8.13934 9.20074 8.90202 8.56389 9.819C7.92472 10.83 7.45361 11.9378 7.16889 13.0995C6.88198 14.3815 6.74158 15.6919 6.75039 17.0055V24.75C6.75039 25.3467 6.98744 25.919 7.4094 26.341C7.83136 26.7629 8.40365 27 9.00039 27H13.5004Z" fill="black"/>
</svg>
